<svg version="1.2" xmlns="http://www.w3.org/2000/svg" viewBox="0 0 250 160" width="250" height="160">
	<title>sm_logo</title>
	<style>
		.s0 { fill: #ffffff } 
	</style>
	<path id="SM." class="s0" aria-label="SM."  d="m45.3 29.2q9.2 0 16.1 2 6.9 2.1 11.1 4.3 4.2 2.3 5.1 3l-10.8 18.1q-1.2-0.9-4.1-2.6-2.8-1.8-6.8-3.1-3.9-1.4-8.2-1.4-5.8 0-9.4 2.1-3.5 2.1-3.5 6.1 0 2.8 1.9 5 1.9 2.2 5.8 4.2 4 2 10.1 4.3 5.5 2 10.4 4.8 4.9 2.8 8.5 6.6 3.8 3.7 6 8.7 2.1 5 2.1 11.2 0 7.5-3 13.1-3.1 5.5-8.4 9.1-5.3 3.6-12 5.4-6.7 1.7-13.9 1.7-10.2 0-18.3-2.3-8-2.3-13-5-4.9-2.7-5.9-3.7l11.2-18.8q0.9 0.7 3.4 2.2 2.7 1.5 6.4 3.1 3.8 1.6 8 2.8 4.2 1.1 8.3 1.1 7 0 10.4-2.7 3.5-2.7 3.5-7 0-3.2-2.2-5.8-2.2-2.5-6.5-4.8-4.4-2.3-10.9-4.8-6.5-2.7-12.2-6.4-5.7-3.8-9.2-9.4-3.5-5.6-3.5-13.9 0-8.4 4.6-14.4 4.8-6.2 12.4-9.5 7.7-3.3 16.5-3.3zm121.8 1.8h31.5v99h-22.3v-58.3l0.9-16.5-3.8 18.9-16.6 48-22-0.1-16.6-47.9-3.8-18.9 1 16.5v58.3h-22.4v-99h31.5l19.9 66.1 1.4 7.9 1.3-7.9zm64.8 100.8q-5.6 0-9.6-4-4-4-4-9.6 0-5.7 4-9.7 4-4 9.6-4 5.7 0 9.6 4 4 4 4 9.7 0 5.6-4 9.6-3.9 4-9.6 4z"/>
</svg>